<svg height="3758" width="720" xmlns="http://www.w3.org/2000/svg">
<rect height="3758" fill="#555" width="720"></rect>
<text fill="#7f7" font-family="Courier New" font-size="12" xml:space="preserve">
<tspan x="10" y="26">19 megabytes installed</tspan>
<tspan x="10" y="42"></tspan>
<tspan x="10" y="58">node_modules</tspan>
<tspan x="10" y="74">└─┬ json-server@0.10.0 </tspan>
<tspan x="10" y="90">  ├─┬ body-parser@1.17.1 </tspan>
<tspan x="10" y="106">  │ ├── bytes@2.4.0 </tspan>
<tspan x="10" y="122">  │ ├── content-type@1.0.2 </tspan>
<tspan x="10" y="138">  │ ├─┬ debug@2.6.1 </tspan>
<tspan x="10" y="154">  │ │ └── ms@0.7.2 </tspan>
<tspan x="10" y="170">  │ ├── depd@1.1.0 </tspan>
<tspan x="10" y="186">  │ ├─┬ http-errors@1.6.1 </tspan>
<tspan x="10" y="202">  │ │ └── inherits@2.0.3 </tspan>
<tspan x="10" y="218">  │ ├── iconv-lite@0.4.15 </tspan>
<tspan x="10" y="234">  │ ├─┬ on-finished@2.3.0 </tspan>
<tspan x="10" y="250">  │ │ └── ee-first@1.1.1 </tspan>
<tspan x="10" y="266">  │ ├── qs@6.4.0 </tspan>
<tspan x="10" y="282">  │ ├─┬ raw-body@2.2.0 </tspan>
<tspan x="10" y="298">  │ │ └── unpipe@1.0.0 </tspan>
<tspan x="10" y="314">  │ └─┬ type-is@1.6.15 </tspan>
<tspan x="10" y="330">  │   └── media-typer@0.3.0 </tspan>
<tspan x="10" y="346">  ├─┬ chalk@1.1.3 </tspan>
<tspan x="10" y="362">  │ ├── ansi-styles@2.2.1 </tspan>
<tspan x="10" y="378">  │ ├── escape-string-regexp@1.0.5 </tspan>
<tspan x="10" y="394">  │ ├─┬ has-ansi@2.0.0 </tspan>
<tspan x="10" y="410">  │ │ └── ansi-regex@2.1.1 </tspan>
<tspan x="10" y="426">  │ ├── strip-ansi@3.0.1 </tspan>
<tspan x="10" y="442">  │ └── supports-color@2.0.0 </tspan>
<tspan x="10" y="458">  ├─┬ compression@1.6.2 </tspan>
<tspan x="10" y="474">  │ ├─┬ accepts@1.3.3 </tspan>
<tspan x="10" y="490">  │ │ └── negotiator@0.6.1 </tspan>
<tspan x="10" y="506">  │ ├── bytes@2.3.0 </tspan>
<tspan x="10" y="522">  │ ├─┬ compressible@2.0.10 </tspan>
<tspan x="10" y="538">  │ │ └── mime-db@1.27.0 </tspan>
<tspan x="10" y="554">  │ ├─┬ debug@2.2.0 </tspan>
<tspan x="10" y="570">  │ │ └── ms@0.7.1 </tspan>
<tspan x="10" y="586">  │ ├── on-headers@1.0.1 </tspan>
<tspan x="10" y="602">  │ └── vary@1.1.1 </tspan>
<tspan x="10" y="618">  ├── connect-pause@0.1.0 </tspan>
<tspan x="10" y="634">  ├── cors@2.8.3 </tspan>
<tspan x="10" y="650">  ├─┬ errorhandler@1.5.0 </tspan>
<tspan x="10" y="666">  │ └── escape-html@1.0.3 </tspan>
<tspan x="10" y="682">  ├─┬ express@4.15.2 </tspan>
<tspan x="10" y="698">  │ ├── array-flatten@1.1.1 </tspan>
<tspan x="10" y="714">  │ ├── content-disposition@0.5.2 </tspan>
<tspan x="10" y="730">  │ ├── cookie@0.3.1 </tspan>
<tspan x="10" y="746">  │ ├── cookie-signature@1.0.6 </tspan>
<tspan x="10" y="762">  │ ├── encodeurl@1.0.1 </tspan>
<tspan x="10" y="778">  │ ├── etag@1.8.0 </tspan>
<tspan x="10" y="794">  │ ├─┬ finalhandler@1.0.2 </tspan>
<tspan x="10" y="810">  │ │ └─┬ debug@2.6.4 </tspan>
<tspan x="10" y="826">  │ │   └── ms@0.7.3 </tspan>
<tspan x="10" y="842">  │ ├── fresh@0.5.0 </tspan>
<tspan x="10" y="858">  │ ├── merge-descriptors@1.0.1 </tspan>
<tspan x="10" y="874">  │ ├── methods@1.1.2 </tspan>
<tspan x="10" y="890">  │ ├── parseurl@1.3.1 </tspan>
<tspan x="10" y="906">  │ ├── path-to-regexp@0.1.7 </tspan>
<tspan x="10" y="922">  │ ├─┬ proxy-addr@1.1.4 </tspan>
<tspan x="10" y="938">  │ │ ├── forwarded@0.1.0 </tspan>
<tspan x="10" y="954">  │ │ └── ipaddr.js@1.3.0 </tspan>
<tspan x="10" y="970">  │ ├── range-parser@1.2.0 </tspan>
<tspan x="10" y="986">  │ ├─┬ send@0.15.1 </tspan>
<tspan x="10" y="1002">  │ │ ├── destroy@1.0.4 </tspan>
<tspan x="10" y="1018">  │ │ └── mime@1.3.4 </tspan>
<tspan x="10" y="1034">  │ ├── serve-static@1.12.1 </tspan>
<tspan x="10" y="1050">  │ ├── setprototypeof@1.0.3 </tspan>
<tspan x="10" y="1066">  │ ├── statuses@1.3.1 </tspan>
<tspan x="10" y="1082">  │ └── utils-merge@1.0.0 </tspan>
<tspan x="10" y="1098">  ├─┬ json-parse-helpfulerror@1.0.3 </tspan>
<tspan x="10" y="1114">  │ └── jju@1.3.0 </tspan>
<tspan x="10" y="1130">  ├── lodash@4.17.4 </tspan>
<tspan x="10" y="1146">  ├── lodash-id@0.13.0 </tspan>
<tspan x="10" y="1162">  ├─┬ lowdb@0.15.5 </tspan>
<tspan x="10" y="1178">  │ ├── graceful-fs@4.1.11 </tspan>
<tspan x="10" y="1194">  │ ├── is-promise@2.1.0 </tspan>
<tspan x="10" y="1210">  │ └── steno@0.4.4 </tspan>
<tspan x="10" y="1226">  ├─┬ method-override@2.3.8 </tspan>
<tspan x="10" y="1242">  │ └── debug@2.6.3 </tspan>
<tspan x="10" y="1258">  ├─┬ morgan@1.8.1 </tspan>
<tspan x="10" y="1274">  │ └── basic-auth@1.1.0 </tspan>
<tspan x="10" y="1290">  ├── object-assign@4.1.1 </tspan>
<tspan x="10" y="1306">  ├── pluralize@3.1.0 </tspan>
<tspan x="10" y="1322">  ├─┬ request@2.81.0 </tspan>
<tspan x="10" y="1338">  │ ├── aws-sign2@0.6.0 </tspan>
<tspan x="10" y="1354">  │ ├── aws4@1.6.0 </tspan>
<tspan x="10" y="1370">  │ ├── caseless@0.12.0 </tspan>
<tspan x="10" y="1386">  │ ├─┬ combined-stream@1.0.5 </tspan>
<tspan x="10" y="1402">  │ │ └── delayed-stream@1.0.0 </tspan>
<tspan x="10" y="1418">  │ ├── extend@3.0.0 </tspan>
<tspan x="10" y="1434">  │ ├── forever-agent@0.6.1 </tspan>
<tspan x="10" y="1450">  │ ├─┬ form-data@2.1.4 </tspan>
<tspan x="10" y="1466">  │ │ └── asynckit@0.4.0 </tspan>
<tspan x="10" y="1482">  │ ├─┬ har-validator@4.2.1 </tspan>
<tspan x="10" y="1498">  │ │ ├─┬ ajv@4.11.7 </tspan>
<tspan x="10" y="1514">  │ │ │ ├── co@4.6.0 </tspan>
<tspan x="10" y="1530">  │ │ │ └─┬ json-stable-stringify@1.0.1 </tspan>
<tspan x="10" y="1546">  │ │ │   └── jsonify@0.0.0 </tspan>
<tspan x="10" y="1562">  │ │ └── har-schema@1.0.5 </tspan>
<tspan x="10" y="1578">  │ ├─┬ hawk@3.1.3 </tspan>
<tspan x="10" y="1594">  │ │ ├── boom@2.10.1 </tspan>
<tspan x="10" y="1610">  │ │ ├── cryptiles@2.0.5 </tspan>
<tspan x="10" y="1626">  │ │ ├── hoek@2.16.3 </tspan>
<tspan x="10" y="1642">  │ │ └── sntp@1.0.9 </tspan>
<tspan x="10" y="1658">  │ ├─┬ http-signature@1.1.1 </tspan>
<tspan x="10" y="1674">  │ │ ├── assert-plus@0.2.0 </tspan>
<tspan x="10" y="1690">  │ │ ├─┬ jsprim@1.4.0 </tspan>
<tspan x="10" y="1706">  │ │ │ ├── assert-plus@1.0.0 </tspan>
<tspan x="10" y="1722">  │ │ │ ├── extsprintf@1.0.2 </tspan>
<tspan x="10" y="1738">  │ │ │ ├── json-schema@0.2.3 </tspan>
<tspan x="10" y="1754">  │ │ │ └── verror@1.3.6 </tspan>
<tspan x="10" y="1770">  │ │ └─┬ sshpk@1.13.0 </tspan>
<tspan x="10" y="1786">  │ │   ├── asn1@0.2.3 </tspan>
<tspan x="10" y="1802">  │ │   ├── assert-plus@1.0.0 </tspan>
<tspan x="10" y="1818">  │ │   ├── bcrypt-pbkdf@1.0.1 </tspan>
<tspan x="10" y="1834">  │ │   ├─┬ dashdash@1.14.1 </tspan>
<tspan x="10" y="1850">  │ │   │ └── assert-plus@1.0.0 </tspan>
<tspan x="10" y="1866">  │ │   ├── ecc-jsbn@0.1.1 </tspan>
<tspan x="10" y="1882">  │ │   ├─┬ getpass@0.1.7 </tspan>
<tspan x="10" y="1898">  │ │   │ └── assert-plus@1.0.0 </tspan>
<tspan x="10" y="1914">  │ │   ├── jodid25519@1.0.2 </tspan>
<tspan x="10" y="1930">  │ │   ├── jsbn@0.1.1 </tspan>
<tspan x="10" y="1946">  │ │   └── tweetnacl@0.14.5 </tspan>
<tspan x="10" y="1962">  │ ├── is-typedarray@1.0.0 </tspan>
<tspan x="10" y="1978">  │ ├── isstream@0.1.2 </tspan>
<tspan x="10" y="1994">  │ ├── json-stringify-safe@5.0.1 </tspan>
<tspan x="10" y="2010">  │ ├── mime-types@2.1.15 </tspan>
<tspan x="10" y="2026">  │ ├── oauth-sign@0.8.2 </tspan>
<tspan x="10" y="2042">  │ ├── performance-now@0.2.0 </tspan>
<tspan x="10" y="2058">  │ ├── safe-buffer@5.0.1 </tspan>
<tspan x="10" y="2074">  │ ├── stringstream@0.0.5 </tspan>
<tspan x="10" y="2090">  │ ├─┬ tough-cookie@2.3.2 </tspan>
<tspan x="10" y="2106">  │ │ └── punycode@1.4.1 </tspan>
<tspan x="10" y="2122">  │ ├── tunnel-agent@0.6.0 </tspan>
<tspan x="10" y="2138">  │ └── uuid@3.0.1 </tspan>
<tspan x="10" y="2154">  ├── server-destroy@1.0.1 </tspan>
<tspan x="10" y="2170">  ├── shortid@2.2.8 </tspan>
<tspan x="10" y="2186">  ├─┬ update-notifier@1.0.3 </tspan>
<tspan x="10" y="2202">  │ ├─┬ boxen@0.6.0 </tspan>
<tspan x="10" y="2218">  │ │ ├── ansi-align@1.1.0 </tspan>
<tspan x="10" y="2234">  │ │ ├── camelcase@2.1.1 </tspan>
<tspan x="10" y="2250">  │ │ ├── cli-boxes@1.0.0 </tspan>
<tspan x="10" y="2266">  │ │ ├── filled-array@1.1.0 </tspan>
<tspan x="10" y="2282">  │ │ ├─┬ repeating@2.0.1 </tspan>
<tspan x="10" y="2298">  │ │ │ └── is-finite@1.0.2 </tspan>
<tspan x="10" y="2314">  │ │ └── widest-line@1.0.0 </tspan>
<tspan x="10" y="2330">  │ ├─┬ configstore@2.1.0 </tspan>
<tspan x="10" y="2346">  │ │ ├─┬ dot-prop@3.0.0 </tspan>
<tspan x="10" y="2362">  │ │ │ └── is-obj@1.0.1 </tspan>
<tspan x="10" y="2378">  │ │ ├─┬ mkdirp@0.5.1 </tspan>
<tspan x="10" y="2394">  │ │ │ └── minimist@0.0.8 </tspan>
<tspan x="10" y="2410">  │ │ ├── os-tmpdir@1.0.2 </tspan>
<tspan x="10" y="2426">  │ │ ├── osenv@0.1.4 </tspan>
<tspan x="10" y="2442">  │ │ ├── uuid@2.0.3 </tspan>
<tspan x="10" y="2458">  │ │ └─┬ write-file-atomic@1.3.4 </tspan>
<tspan x="10" y="2474">  │ │   ├── imurmurhash@0.1.4 </tspan>
<tspan x="10" y="2490">  │ │   └── slide@1.1.6 </tspan>
<tspan x="10" y="2506">  │ ├── is-npm@1.0.0 </tspan>
<tspan x="10" y="2522">  │ ├─┬ latest-version@2.0.0 </tspan>
<tspan x="10" y="2538">  │ │ └─┬ package-json@2.4.0 </tspan>
<tspan x="10" y="2554">  │ │   ├─┬ got@5.7.1 </tspan>
<tspan x="10" y="2570">  │ │   │ ├─┬ create-error-class@3.0.2 </tspan>
<tspan x="10" y="2586">  │ │   │ │ └── capture-stack-trace@1.0.0 </tspan>
<tspan x="10" y="2602">  │ │   │ ├── duplexer2@0.1.4 </tspan>
<tspan x="10" y="2618">  │ │   │ ├── is-redirect@1.0.0 </tspan>
<tspan x="10" y="2634">  │ │   │ ├── is-retry-allowed@1.1.0 </tspan>
<tspan x="10" y="2650">  │ │   │ ├── is-stream@1.1.0 </tspan>
<tspan x="10" y="2666">  │ │   │ ├── lowercase-keys@1.0.0 </tspan>
<tspan x="10" y="2682">  │ │   │ ├── node-status-codes@1.0.0 </tspan>
<tspan x="10" y="2698">  │ │   │ ├─┬ parse-json@2.2.0 </tspan>
<tspan x="10" y="2714">  │ │   │ │ └─┬ error-ex@1.3.1 </tspan>
<tspan x="10" y="2730">  │ │   │ │   └── is-arrayish@0.2.1 </tspan>
<tspan x="10" y="2746">  │ │   │ ├── read-all-stream@3.1.0 </tspan>
<tspan x="10" y="2762">  │ │   │ ├─┬ readable-stream@2.2.9 </tspan>
<tspan x="10" y="2778">  │ │   │ │ ├── buffer-shims@1.0.0 </tspan>
<tspan x="10" y="2794">  │ │   │ │ ├── core-util-is@1.0.2 </tspan>
<tspan x="10" y="2810">  │ │   │ │ ├── isarray@1.0.0 </tspan>
<tspan x="10" y="2826">  │ │   │ │ ├── process-nextick-args@1.0.7 </tspan>
<tspan x="10" y="2842">  │ │   │ │ ├── string_decoder@1.0.0 </tspan>
<tspan x="10" y="2858">  │ │   │ │ └── util-deprecate@1.0.2 </tspan>
<tspan x="10" y="2874">  │ │   │ ├── timed-out@3.1.3 </tspan>
<tspan x="10" y="2890">  │ │   │ ├── unzip-response@1.0.2 </tspan>
<tspan x="10" y="2906">  │ │   │ └─┬ url-parse-lax@1.0.0 </tspan>
<tspan x="10" y="2922">  │ │   │   └── prepend-http@1.0.4 </tspan>
<tspan x="10" y="2938">  │ │   ├─┬ registry-auth-token@3.3.0 </tspan>
<tspan x="10" y="2954">  │ │   │ └─┬ rc@1.2.1 </tspan>
<tspan x="10" y="2970">  │ │   │   ├── deep-extend@0.4.1 </tspan>
<tspan x="10" y="2986">  │ │   │   ├── ini@1.3.4 </tspan>
<tspan x="10" y="3002">  │ │   │   ├── minimist@1.2.0 </tspan>
<tspan x="10" y="3018">  │ │   │   └── strip-json-comments@2.0.1 </tspan>
<tspan x="10" y="3034">  │ │   └── registry-url@3.1.0 </tspan>
<tspan x="10" y="3050">  │ ├── lazy-req@1.1.0 </tspan>
<tspan x="10" y="3066">  │ ├─┬ semver-diff@2.1.0 </tspan>
<tspan x="10" y="3082">  │ │ └── semver@5.3.0 </tspan>
<tspan x="10" y="3098">  │ └─┬ xdg-basedir@2.0.0 </tspan>
<tspan x="10" y="3114">  │   └── os-homedir@1.0.2 </tspan>
<tspan x="10" y="3130">  └─┬ yargs@6.6.0 </tspan>
<tspan x="10" y="3146">    ├── camelcase@3.0.0 </tspan>
<tspan x="10" y="3162">    ├─┬ cliui@3.2.0 </tspan>
<tspan x="10" y="3178">    │ └── wrap-ansi@2.1.0 </tspan>
<tspan x="10" y="3194">    ├── decamelize@1.2.0 </tspan>
<tspan x="10" y="3210">    ├── get-caller-file@1.0.2 </tspan>
<tspan x="10" y="3226">    ├─┬ os-locale@1.4.0 </tspan>
<tspan x="10" y="3242">    │ └─┬ lcid@1.0.0 </tspan>
<tspan x="10" y="3258">    │   └── invert-kv@1.0.0 </tspan>
<tspan x="10" y="3274">    ├─┬ read-pkg-up@1.0.1 </tspan>
<tspan x="10" y="3290">    │ ├─┬ find-up@1.1.2 </tspan>
<tspan x="10" y="3306">    │ │ ├── path-exists@2.1.0 </tspan>
<tspan x="10" y="3322">    │ │ └─┬ pinkie-promise@2.0.1 </tspan>
<tspan x="10" y="3338">    │ │   └── pinkie@2.0.4 </tspan>
<tspan x="10" y="3354">    │ └─┬ read-pkg@1.1.0 </tspan>
<tspan x="10" y="3370">    │   ├─┬ load-json-file@1.1.0 </tspan>
<tspan x="10" y="3386">    │   │ ├── pify@2.3.0 </tspan>
<tspan x="10" y="3402">    │   │ └─┬ strip-bom@2.0.0 </tspan>
<tspan x="10" y="3418">    │   │   └── is-utf8@0.2.1 </tspan>
<tspan x="10" y="3434">    │   ├─┬ normalize-package-data@2.3.8 </tspan>
<tspan x="10" y="3450">    │   │ ├── hosted-git-info@2.4.2 </tspan>
<tspan x="10" y="3466">    │   │ ├─┬ is-builtin-module@1.0.0 </tspan>
<tspan x="10" y="3482">    │   │ │ └── builtin-modules@1.1.1 </tspan>
<tspan x="10" y="3498">    │   │ └─┬ validate-npm-package-license@3.0.1 </tspan>
<tspan x="10" y="3514">    │   │   ├─┬ spdx-correct@1.0.2 </tspan>
<tspan x="10" y="3530">    │   │   │ └── spdx-license-ids@1.2.2 </tspan>
<tspan x="10" y="3546">    │   │   └── spdx-expression-parse@1.0.4 </tspan>
<tspan x="10" y="3562">    │   └── path-type@1.1.0 </tspan>
<tspan x="10" y="3578">    ├── require-directory@2.1.1 </tspan>
<tspan x="10" y="3594">    ├── require-main-filename@1.0.1 </tspan>
<tspan x="10" y="3610">    ├── set-blocking@2.0.0 </tspan>
<tspan x="10" y="3626">    ├─┬ string-width@1.0.2 </tspan>
<tspan x="10" y="3642">    │ ├── code-point-at@1.1.0 </tspan>
<tspan x="10" y="3658">    │ └─┬ is-fullwidth-code-point@1.0.0 </tspan>
<tspan x="10" y="3674">    │   └── number-is-nan@1.0.1 </tspan>
<tspan x="10" y="3690">    ├── which-module@1.0.0 </tspan>
<tspan x="10" y="3706">    ├── y18n@3.2.1 </tspan>
<tspan x="10" y="3722">    └─┬ yargs-parser@4.2.1 </tspan>
<tspan x="10" y="3738">      └── camelcase@3.0.0</tspan>
</text>
</svg>
